<svg width="300" height="300" viewBox="0 0 300 300" fill="none" xmlns="http://www.w3.org/2000/svg">
  <!-- Bowl base -->
  <ellipse cx="150" cy="190" rx="100" ry="30" fill="#E0E0E0" fill-opacity="0.5"/>
  <path d="M250 160C250 135.2 205.2 115 150 115C94.8 115 50 135.2 50 160V190C50 215.4 94.8 235 150 235C205.2 235 250 215.4 250 190V160Z" fill="#D0BEF0"/>
  
  <!-- Bowl rim -->
  <ellipse cx="150" cy="160" rx="100" ry="30" fill="#E5D5FF"/>
  
  <!-- Acai smoothie -->
  <ellipse cx="150" cy="150" rx="90" ry="25" fill="#5A2D82"/>
  
  <!-- Granola and toppings -->
  <ellipse cx="150" cy="140" rx="80" ry="20" fill="#E7C988"/>
  
  <!-- Banana slices -->
  <ellipse cx="120" cy="130" rx="10" ry="5" fill="#FFEDA0" transform="rotate(30 120 130)"/>
  <ellipse cx="140" cy="125" rx="10" ry="5" fill="#FFEDA0" transform="rotate(-20 140 125)"/>
  <ellipse cx="162" cy="135" rx="10" ry="5" fill="#FFEDA0" transform="rotate(15 162 135)"/>
  
  <!-- Strawberries -->
  <path d="M190 120C195 115 200 118 200 123C200 128 195 135 190 130C185 135 180 128 180 123C180 118 185 115 190 120Z" fill="#FF4D6D"/>
  <path d="M175 110C180 105 185 108 185 113C185 118 180 125 175 120C170 125 165 118 165 113C165 108 170 105 175 110Z" fill="#FF4D6D"/>
  
  <!-- Blueberries -->
  <circle cx="110" cy="118" r="5" fill="#32327C"/>
  <circle cx="100" cy="125" r="5" fill="#32327C"/>
  <circle cx="120" cy="127" r="5" fill="#32327C"/>
  
  <!-- ACAI BOWL text -->
  <text x="150" y="80" font-family="Arial" font-size="24" text-anchor="middle" fill="#8B8BDA">ACAI</text>
  <text x="150" y="110" font-family="Arial" font-size="36" font-weight="bold" text-anchor="middle" fill="#8B8BDA">BOWL</text>
</svg>