<svg width="150" height="30" viewBox="0 0 150 30" fill="none" xmlns="http://www.w3.org/2000/svg">
  <path d="M74.8148 10.8698C77.3102 10.8698 79.1682 12.7278 79.1682 15.2232C79.1682 17.7185 77.3102 19.5766 74.8148 19.5766C72.3195 19.5766 70.4614 17.7185 70.4614 15.2232C70.4614 12.7278 72.3195 10.8698 74.8148 10.8698Z" fill="#FF3008"/>
  <path d="M29.4464 10.1516C28.6555 10.1516 27.9823 10.4741 27.4811 11.028C26.9799 10.4741 26.3067 10.1516 25.5159 10.1516C24.0347 10.1516 22.8254 11.2831 22.8254 12.6866V19.2642H25.0488V12.6866C25.0488 12.5634 25.1494 12.4628 25.2725 12.4628C25.3957 12.4628 25.4963 12.5634 25.4963 12.6866V19.2642H27.7197V12.6866C27.7197 12.5634 27.8203 12.4628 27.9434 12.4628C28.0666 12.4628 28.1672 12.5634 28.1672 12.6866V19.2642H30.3906V12.6866C30.3906 11.2831 29.1813 10.1516 27.7001 10.1516H29.4464Z" fill="#FF3008"/>
  <path d="M44.6987 10.1516C43.2175 10.1516 42.0082 11.2831 42.0082 12.6866V19.2642H44.2316V12.6866C44.2316 12.5634 44.3322 12.4628 44.4554 12.4628C44.5785 12.4628 44.6791 12.5634 44.6791 12.6866V19.2642H46.9025V12.6866C46.9025 11.2831 45.6932 10.1516 44.212 10.1516H44.6987Z" fill="#FF3008"/>
  <path d="M14.9906 10.1516C13.5094 10.1516 12.3001 11.2831 12.3001 12.6866V16.7292C12.3001 18.1327 13.5094 19.2642 14.9906 19.2642H18.8372V16.9529H14.9906C14.8674 16.9529 14.7668 16.8524 14.7668 16.7292V12.6866C14.7668 12.5634 14.8674 12.4628 14.9906 12.4628H18.8372V10.1516H14.9906Z" fill="#FF3008"/>
  <path d="M123.308 10.1516C121.827 10.1516 120.618 11.2831 120.618 12.6866V16.7292C120.618 18.1327 121.827 19.2642 123.308 19.2642H127.155V16.9529H123.308C123.185 16.9529 123.085 16.8524 123.085 16.7292V12.6866C123.085 12.5634 123.185 12.4628 123.308 12.4628H127.155V10.1516H123.308Z" fill="#FF3008"/>
  <path d="M84.0285 10.1516C82.5473 10.1516 81.338 11.2831 81.338 12.6866V16.7292C81.338 18.1327 82.5473 19.2642 84.0285 19.2642H87.8752V16.9529H84.0285C83.9054 16.9529 83.8048 16.8524 83.8048 16.7292V15.7404H87.8752V10.1516H84.0285ZM84.0285 12.4628H85.4421V13.4292H83.8048V12.6866C83.8048 12.5634 83.9054 12.4628 84.0285 12.4628Z" fill="#FF3008"/>
  <path d="M93.4384 10.1516C91.9572 10.1516 90.7479 11.2831 90.7479 12.6866V16.7292C90.7479 18.1327 91.9572 19.2642 93.4384 19.2642H97.285V10.1516H93.4384ZM93.4384 12.4628H94.852V16.9529H93.4384C93.3152 16.9529 93.2147 16.8524 93.2147 16.7292V12.6866C93.2147 12.5634 93.3152 12.4628 93.4384 12.4628Z" fill="#FF3008"/>
  <path d="M102.848 10.1516C101.367 10.1516 100.158 11.2831 100.158 12.6866V16.7292C100.158 18.1327 101.367 19.2642 102.848 19.2642H106.695V16.9529H102.848C102.725 16.9529 102.625 16.8524 102.625 16.7292V12.6866C102.625 12.5634 102.725 12.4628 102.848 12.4628H106.695V10.1516H102.848Z" fill="#FF3008"/>
  <path d="M35.0097 10.1516C33.5285 10.1516 32.3192 11.2831 32.3192 12.6866V16.7292C32.3192 18.1327 33.5285 19.2642 35.0097 19.2642H38.8564V16.9529H35.0097C34.8866 16.9529 34.786 16.8524 34.786 16.7292V15.7404H38.8564V10.1516H35.0097ZM35.0097 12.4628H36.4233V13.4292H34.786V12.6866C34.786 12.5634 34.8866 12.4628 35.0097 12.4628Z" fill="#FF3008"/>
  <path d="M62.6636 10.1516C61.1825 10.1516 59.9731 11.2831 59.9731 12.6866V16.7292C59.9731 18.1327 61.1825 19.2642 62.6636 19.2642H66.5103V16.9529H62.6636C62.5405 16.9529 62.4399 16.8524 62.4399 16.7292V15.7404H66.5103V10.1516H62.6636ZM62.6636 12.4628H64.0772V13.4292H62.4399V12.6866C62.4399 12.5634 62.5405 12.4628 62.6636 12.4628Z" fill="#FF3008"/>
  <path d="M132.717 10.1516C131.236 10.1516 130.027 11.2831 130.027 12.6866V16.7292C130.027 18.1327 131.236 19.2642 132.717 19.2642H136.564V16.9529H132.717C132.594 16.9529 132.494 16.8524 132.494 16.7292V15.7404H136.564V10.1516H132.717ZM132.717 12.4628H134.131V13.4292H132.494V12.6866C132.494 12.5634 132.594 12.4628 132.717 12.4628Z" fill="#FF3008"/>
  <path d="M53.3245 10.1516C51.8433 10.1516 50.634 11.2831 50.634 12.6866V19.2642H53.1008V12.6866C53.1008 12.5634 53.2013 12.4628 53.3245 12.4628H56.1246V10.1516H53.3245Z" fill="#FF3008"/>
  <path d="M113.019 10.1516C111.538 10.1516 110.329 11.2831 110.329 12.6866V19.2642H112.795V12.6866C112.795 12.5634 112.896 12.4628 113.019 12.4628H115.819V10.1516H113.019Z" fill="#FF3008"/>
</svg>