<svg width="150" height="30" viewBox="0 0 150 30" fill="none" xmlns="http://www.w3.org/2000/svg">
  <path d="M43.5 15C43.5 15.375 43.5 15.75 43.5 16.125C43.125 16.125 42.75 16.125 42.375 16.125H37.875C37.875 17.625 39 18.75 40.5 18.75C41.625 18.75 42.375 18 42.75 17.25C43.125 17.25 43.5 17.25 43.875 17.25C43.5 18.75 42 20.25 40.5 20.25C38.25 20.25 36.375 18.375 36.375 16.125C36.375 13.875 38.25 12 40.5 12C42.375 12 43.5 13.5 43.5 15ZM40.5 13.5C39 13.5 38.25 14.625 37.875 15.375H42.75C42.75 14.25 41.625 13.5 40.5 13.5Z" fill="black"/>
  <path d="M86.625 15C86.625 15.375 86.625 15.75 86.625 16.125C86.25 16.125 85.875 16.125 85.5 16.125H81C81 17.625 82.125 18.75 83.625 18.75C84.75 18.75 85.5 18 85.875 17.25C86.25 17.25 86.625 17.25 87 17.25C86.625 18.75 85.125 20.25 83.625 20.25C81.375 20.25 79.5 18.375 79.5 16.125C79.5 13.875 81.375 12 83.625 12C85.5 12 86.625 13.5 86.625 15ZM83.625 13.5C82.125 13.5 81.375 14.625 81 15.375H85.875C85.875 14.25 84.75 13.5 83.625 13.5Z" fill="black"/>
  <path d="M117 15C117 15.375 117 15.75 117 16.125C116.625 16.125 116.25 16.125 115.875 16.125H111.375C111.375 17.625 112.5 18.75 114 18.75C115.125 18.75 115.875 18 116.25 17.25C116.625 17.25 117 17.25 117.375 17.25C117 18.75 115.5 20.25 114 20.25C111.75 20.25 109.875 18.375 109.875 16.125C109.875 13.875 111.75 12 114 12C115.875 12 117 13.5 117 15ZM114 13.5C112.5 13.5 111.75 14.625 111.375 15.375H116.25C116.25 14.25 115.125 13.5 114 13.5Z" fill="black"/>
  <path d="M59.25 20.25C56.625 20.25 54.75 18.375 54.75 16.125C54.75 13.875 56.625 12 59.25 12C60.75 12 62.25 12.75 63 14.25C62.625 14.25 62.25 14.625 61.875 14.625C61.5 13.875 60.375 13.5 59.25 13.5C57.75 13.5 56.25 14.625 56.25 16.125C56.25 17.625 57.75 18.75 59.25 18.75C60.375 18.75 61.5 18 61.875 17.25C62.25 17.25 62.625 17.625 63 17.625C62.25 19.125 60.75 20.25 59.25 20.25Z" fill="black"/>
  <path d="M107.25 20.25C106.125 20.25 105 19.875 104.625 19.125C104.625 19.5 104.625 19.875 104.625 20.25C104.25 20.25 103.875 20.25 103.5 20.25C103.5 17.25 103.5 14.25 103.5 11.25C103.875 11.25 104.25 11.25 104.625 11.25C104.625 12.75 104.625 14.25 104.625 15.75C105 15 106.125 14.625 107.25 14.625C109.125 14.625 110.625 16.125 110.625 17.625C110.625 19.125 109.125 20.25 107.25 20.25ZM107.25 15.75C106.125 15.75 105 16.5 105 17.625C105 18.75 106.125 19.5 107.25 19.5C108.375 19.5 109.5 18.75 109.5 17.625C109.5 16.5 108.375 15.75 107.25 15.75Z" fill="black"/>
  <path d="M95.625 20.25C94.5 20.25 93.375 19.875 93 19.125C93 19.5 93 19.875 93 20.25C92.625 20.25 92.25 20.25 91.875 20.25C91.875 17.25 91.875 14.25 91.875 11.25C92.25 11.25 92.625 11.25 93 11.25C93 12.75 93 14.25 93 15.75C93.375 15 94.5 14.625 95.625 14.625C97.5 14.625 99 16.125 99 17.625C99 19.125 97.5 20.25 95.625 20.25ZM95.625 15.75C94.5 15.75 93.375 16.5 93.375 17.625C93.375 18.75 94.5 19.5 95.625 19.5C96.75 19.5 97.875 18.75 97.875 17.625C97.875 16.5 96.75 15.75 95.625 15.75Z" fill="black"/>
  <path d="M102 16.5V20.25C101.625 20.25 101.25 20.25 100.875 20.25V15C101.25 15 101.625 15 102 15H102.75V15.75H102.375C102 15.75 102 16.125 102 16.5Z" fill="black"/>
  <path d="M54 15V20.25C53.625 20.25 53.25 20.25 52.875 20.25V15H51.375C51.375 14.625 51.375 14.25 51.375 13.875H55.5C55.5 14.25 55.5 14.625 55.5 15H54Z" fill="black"/>
  <path d="M47.25 20.25C46.875 20.25 46.5 20.25 46.125 20.25V15C46.5 15 46.875 15 47.25 15C49.5 15 51 16.5 51 17.625C51 18.75 49.5 20.25 47.25 20.25ZM47.25 15.75C47.25 15.75 47.25 15.75 47.25 15.75C46.5 15.75 46.5 15.75 46.5 15.75V19.5C46.5 19.5 46.5 19.5 47.25 19.5C49.125 19.5 50.25 18.375 50.25 17.625C50.25 16.875 49.125 15.75 47.25 15.75Z" fill="black"/>
  <path d="M73.125 20.25C72.75 20.25 72.375 20.25 72 20.25V15H70.5C70.5 14.625 70.5 14.25 70.5 13.875H74.625C74.625 14.25 74.625 14.625 74.625 15H73.125V20.25Z" fill="black"/>
  <path d="M76.875 12.75C76.5 12.75 76.125 12.375 76.125 12C76.125 11.625 76.5 11.25 76.875 11.25C77.25 11.25 77.625 11.625 77.625 12C77.625 12.375 77.25 12.75 76.875 12.75ZM76.5 20.25V15C76.875 15 77.25 15 77.625 15V20.25C77.25 20.25 76.875 20.25 76.5 20.25Z" fill="black"/>
  <path d="M67.5 20.25C65.25 20.25 63.375 18.375 63.375 16.125C63.375 13.875 65.25 12 67.5 12C69.75 12 71.625 13.875 71.625 16.125C71.625 18.375 69.75 20.25 67.5 20.25ZM67.5 13.5C66 13.5 64.875 14.625 64.875 16.125C64.875 17.625 66 18.75 67.5 18.75C69 18.75 70.125 17.625 70.125 16.125C70.125 14.625 69 13.5 67.5 13.5Z" fill="black"/>
  <path d="M119.25 15V20.25C118.875 20.25 118.5 20.25 118.125 20.25V12H118.5L123 17.25V12H124.125V20.25H123.75L119.25 15Z" fill="black"/>
</svg>